<svg width="39" height="39" viewBox="0 0 39 39" fill="none" xmlns="http://www.w3.org/2000/svg">
<path d="M0.157434 0L4.7331 5.77395C4.51488 9.66511 2.8314 12.644 0.537805 15.3859L0 15.245V16.7921L0.20476 16.8459C1.43396 20.4546 0.93251 24.1191 0.350502 27.9202L8.01869e-05 28.0841V29.7361L0.735197 29.3923C1.25699 30.2497 1.8289 31.5581 2.26149 32.7019C2.5264 33.4038 2.77347 34.1123 3.00245 34.8268L8.01869e-05 37.8449V38.0395H1.91731L4.20354 35.7413C4.94587 35.7122 7.54841 35.6233 10.826 35.6812C14.5692 35.7473 19.043 36.0255 21.9609 36.7756L22.3677 38.0396H23.9398L23.3448 36.1907C26.2228 32.8667 29.1034 29.7425 33.8938 27.9956L38.0398 29.636V28.0267L34.5978 26.6647C34.0873 23.5249 35.6192 20.5255 37.0497 17.3212L38.0398 17.1142V15.5854L37.5334 15.6913L37.097 15.4669C32.6056 13.1581 30.9843 9.22148 29.6257 4.8404L33.1639 0H31.3101L28.2191 4.22893C23.5527 4.32934 19.2123 4.03169 15.8513 1.20277L15.6692 0H14.1557L14.383 1.50146C12.21 3.82293 9.77338 5.34153 6.0081 4.97333L2.06666 0H0.157274H0.157434ZM16.1664 3.28352C19.4182 5.3899 23.2532 5.75746 27.1174 5.73632L24.4636 9.36706C21.5337 9.39877 18.8697 9.1241 16.7885 7.39409L16.1664 3.28352ZM14.6582 3.31876L15.3221 7.70504C13.8955 9.19577 12.3356 10.1218 9.87716 9.85546L7.22849 6.51323C10.3189 6.45398 12.7025 5.14038 14.6581 3.31876H14.6582ZM28.5377 6.32905C29.7818 10.0901 31.5046 13.7515 35.3083 16.1564L31.1628 17.0228L31.0975 16.9895C28.1129 15.4564 27.0579 12.8542 26.1378 9.87612L26.0805 9.69073L28.5375 6.32905H28.5377ZM6.05655 7.44358L8.81068 10.9188C8.60864 13.2878 7.57715 15.1357 6.15689 16.8612L2.12063 15.8015C4.0196 13.4173 5.53516 10.7251 6.05663 7.4435L6.05655 7.44358ZM17.0952 9.42071C19.0119 10.5173 21.1831 10.8141 23.3736 10.858L20.7382 14.4637C19.5324 13.9541 18.6452 13.0421 17.6496 12.0353L17.462 11.8456L17.0951 9.42079L17.0952 9.42071ZM15.5915 9.48557L16.0393 12.4449C15.1443 13.0454 14.0825 13.4178 12.9125 13.6854L11.0786 11.3714C12.8971 11.2597 14.3694 10.5162 15.5915 9.48557ZM24.991 11.1811C25.7715 13.5157 26.8445 15.827 29.0414 17.4664L24.5628 18.4025C23.522 17.5071 22.963 16.4219 22.3882 15.2082L22.2544 14.9255L24.991 11.1811ZM10.0619 12.4978L11.5948 14.432L11.5885 14.4889C11.434 15.8794 10.8777 16.8616 10.2552 17.9373L7.72986 17.2742C8.78785 15.8844 9.64693 14.3251 10.0617 12.4978H10.0619ZM16.2819 14.0475L16.7633 17.23C16.4781 17.2845 16.2019 17.3783 15.9425 17.5087L13.9264 14.9648C14.7424 14.7446 15.5384 14.4567 16.2818 14.0476L16.2819 14.0475ZM17.8322 14.2912C18.4212 14.818 19.075 15.31 19.8463 15.6838L18.5784 17.4184C18.4839 17.3785 18.3875 17.3433 18.2895 17.3129L17.8323 14.2911L17.8322 14.2912ZM12.8073 15.962L14.802 18.4788C14.6739 18.6558 14.5644 18.8455 14.4753 19.045L11.7596 18.3321C12.1563 17.6309 12.5467 16.8705 12.8073 15.962ZM21.2575 16.2889C21.6675 17.1229 22.1467 17.9781 22.8313 18.7643L20.3374 19.2855C20.2122 18.929 20.024 18.5978 19.7819 18.3077L21.2575 16.2889ZM1.89689 17.2901L5.81055 18.3176C6.54943 20.577 6.2746 22.8884 5.90664 25.3202L1.97705 27.159C2.45351 23.9441 2.80097 20.6395 1.89689 17.2901ZM35.2208 17.7035C34.025 20.3169 32.8093 23.0474 33.024 26.042L29.5214 24.6561C29.2331 22.6529 30.2241 20.6967 31.181 18.5479L35.2209 17.7036L35.2208 17.7035ZM7.46761 18.7525L9.67888 19.3329L9.72389 19.4451C10.2124 20.6569 10.1549 21.9893 9.95611 23.4256L7.52831 24.5615C7.78568 22.6787 7.92677 20.7327 7.46761 18.7525ZM29.3526 18.9301C28.6284 20.517 27.9274 22.1975 27.9711 24.0428L25.0412 22.8835C25.0409 21.8307 25.1529 21.0545 25.7715 20.1673L26.1703 19.5952L29.3526 18.9301ZM11.3862 19.7811L14.2079 20.522C14.2252 20.8069 14.2812 21.0882 14.3743 21.358L11.55 22.6796C11.6341 21.7266 11.6241 20.7538 11.3862 19.7811ZM24.1315 20.0214C23.7611 20.7767 23.6206 21.534 23.5751 22.3034L20.4298 21.059C20.4511 20.9689 20.4674 20.877 20.481 20.7844L24.1314 20.0214H24.1315ZM19.7435 22.3967L22.6667 23.5532C21.9532 23.92 21.28 24.3969 20.6906 24.8473C20.4216 25.0529 20.1577 25.2649 19.8989 25.4833L19.09 22.969C19.3334 22.8089 19.5533 22.6161 19.7436 22.3967H19.7435ZM15.0894 22.6756L12.0739 25.7072C11.869 25.2107 11.592 24.8145 11.3061 24.4872L11.3131 24.4426L15.0891 22.6756H15.0894ZM16.5091 23.3701C16.8894 23.4763 17.2862 23.5104 17.679 23.4706L18.5177 26.0763C17.4515 26.0635 15.5057 26.0824 13.5774 26.3174L16.5091 23.3702L16.5091 23.3701ZM24.7961 24.3959L26.8271 25.1994C24.4728 26.3941 22.7931 28.0739 21.2816 29.7799L20.3972 27.0317C20.6818 26.7775 21.0963 26.4207 21.5992 26.0365C22.5136 25.3377 23.6978 24.6191 24.4567 24.4648L24.7961 24.3959ZM9.8617 25.1218L9.98318 25.2439C10.4515 25.7144 10.7818 26.069 10.8819 26.9055L8.38802 29.4126C8.36 29.2308 8.32893 29.0419 8.29193 28.8407C8.13097 27.9638 7.93574 27.0035 7.5452 26.2058L9.8617 25.1219V25.1218ZM28.7544 25.962L31.8949 27.2047C27.9372 29.0065 25.2552 31.7438 22.81 34.5294L21.8142 31.4347C23.7444 29.2055 25.6318 27.1412 28.7545 25.9621L28.7544 25.962ZM6.17346 26.8475C6.41386 27.395 6.67171 28.3025 6.82017 29.111C6.94686 29.8004 7.02037 30.3986 7.05881 30.7486L4.18544 33.6374C4.01964 33.146 3.84477 32.6577 3.66093 32.1727C3.23059 31.0344 2.70056 29.7694 2.0906 28.7582L6.17346 26.8475ZM18.2543 27.58C18.572 27.5795 18.7999 27.5824 19.003 27.5852L19.8355 30.1718C17.7329 29.8394 15.1403 29.8362 12.8642 29.9167C11.6169 29.9607 10.6216 30.023 9.83263 30.0821L11.7632 28.1412L11.8392 28.1228C13.7408 27.6591 16.6327 27.5826 18.2543 27.58ZM14.8756 31.3749C16.8715 31.3707 18.9088 31.4763 20.3543 31.7836L21.4295 35.125C18.3299 34.4659 14.3039 34.246 10.8523 34.185C8.67246 34.1464 6.90954 34.17 5.73776 34.1989L8.20416 31.7194C8.82597 31.6588 10.6634 31.4918 12.917 31.4122C13.5496 31.3898 14.2103 31.3762 14.8756 31.3748L14.8756 31.3749Z" fill="#526D82"/>
</svg>
